<?xml version="1.0" encoding="utf-8"?>
<!-- Generator: Adobe Illustrator 22.1.0, SVG Export Plug-In . SVG Version: 6.00 Build 0)  -->
<svg version="1.1" id="图层_1" xmlns="http://www.w3.org/2000/svg" xmlns:xlink="http://www.w3.org/1999/xlink" x="0px" y="0px"
	 viewBox="0 0 200 200" style="enable-background:new 0 0 200 200;" xml:space="preserve">
<style type="text/css">
	.st0{fill:#BAC3D3;}
</style>
<path class="st0" d="M47,128.8h-6.8V76.9h-9.5l4.2-6.7H47V128.8z"/>
<path class="st0" d="M115.6,128.8H74.7l22.8-24.6c3.8-4.1,6.6-7.3,8.2-9.6c1.6-2.3,2.4-5,2.4-8c0-3-1.2-5.6-3.5-7.8
	c-2.3-2.2-5.2-3.4-8.6-3.4s-6.3,1.2-8.6,3.6c-2.3,2.4-3.6,5.9-3.9,10.4h-6.6c0.3-6.3,2.3-11.3,6-15c3.7-3.7,8.3-5.6,13.6-5.6
	c5.3,0,9.7,1.7,13.2,5.2c3.5,3.4,5.2,7.6,5.2,12.6c0,3.6-1,7-2.9,10.2c-1.9,3.1-4.8,6.8-8.7,11l-13.4,14.5h25.8V128.8z"/>
<path class="st0" d="M163.4,95.8c3.1,1.5,5.6,3.7,7.3,6.4c1.7,2.7,2.6,5.7,2.6,8.9c0,5.2-1.9,9.7-5.7,13.5
	c-3.8,3.8-8.6,5.6-14.4,5.6c-5.2,0-9.5-1.5-12.8-4.5c-3.3-3-5.6-7.5-6.8-13.4h6.8c1,3.8,2.5,6.6,4.5,8.4s4.9,2.8,8.6,2.8
	c3.7,0,6.8-1.2,9.3-3.5c2.5-2.3,3.8-5.2,3.8-8.8c0-3.5-1.4-6.3-4.3-8.4c-2.9-2.1-7.1-3.2-12.6-3.3v-6.4c4,0,7.2-0.9,9.7-2.6
	c2.5-1.7,3.7-3.8,3.7-6.4c0-2.5-0.9-4.6-2.8-6.3c-1.9-1.7-4.2-2.5-6.9-2.5c-2.7,0-4.9,0.8-6.6,2.3c-1.7,1.5-3.1,3.8-4.3,6.9h-7
	c1.2-5.1,3.3-9,6.4-11.8c3.1-2.7,6.9-4.1,11.4-4.1c4.5,0,8.5,1.5,11.8,4.5c3.3,3,5,6.6,5,10.9C170.1,89,167.8,92.9,163.4,95.8z"/>
<g>
	<path class="st0" d="M23.3,183.8c-4.7,0-8.5-3.8-8.5-8.5V21.8c0-4.7,3.8-8.5,8.5-8.5h120v-7h-120c-8.5,0-15.5,7-15.5,15.5v153.5
		c0,8.5,7,15.5,15.5,15.5h21.8v-7H23.3z"/>
	<path class="st0" d="M176.8,6.3h-23.4v7h23.4c4.7,0,8.5,3.8,8.5,8.5v153.5c0,4.7-3.8,8.5-8.5,8.5H55.1v7h121.7
		c8.5,0,15.5-7,15.5-15.5V21.8C192.3,13.3,185.4,6.3,176.8,6.3z"/>
</g>
</svg>
