<?xml version="1.0" encoding="utf-8"?>
<!-- Generator: Adobe Illustrator 22.1.0, SVG Export Plug-In . SVG Version: 6.00 Build 0)  -->
<svg version="1.1" id="图层_1" xmlns="http://www.w3.org/2000/svg" xmlns:xlink="http://www.w3.org/1999/xlink" x="0px" y="0px"
	 viewBox="0 0 200 200" style="enable-background:new 0 0 200 200;" xml:space="preserve">
<style type="text/css">
	.st0{fill:#ED4201;}
	.st1{fill:#035DB6;}
</style>
<path class="st0" d="M11.9,73.6c1.6,0.9,2.9,2.2,4.3,3.3c2.1,1.6,4.2,3.1,6.2,4.6c3.1-6.9,6.1-13.5,9.2-20.4
	c-4.8-0.9-9.8-1.8-14.8-2.5c-0.7-0.1-1.8,0.8-2.2,1.5C13.2,63,11.9,66,10.6,69C9.7,70.9,9.9,72.4,11.9,73.6z"/>
<path class="st0" d="M37.5,52.2c5.8-5,11.3-9.8,17.1-14.8c-4.1-2.8-8.3-5.8-12.6-8.6c-0.6-0.4-2.1-0.1-2.7,0.4
	c-2.9,2.3-5.6,4.8-8.3,7.4c-0.5,0.4-0.7,1.6-0.4,2.1C32.7,43.3,35.1,47.7,37.5,52.2z"/>
<path class="st0" d="M64.8,32.5c6.3-1.8,12.7-3.7,19-5.5c1.6-0.5,1.4-1.2,0.7-2.3c-2.2-3.7-4.2-7.6-6.6-11.2c-0.5-0.8-2.1-1.4-3-1.2
	c-3.4,0.8-6.8,1.8-10.1,2.9c-0.6,0.2-1.4,1.1-1.4,1.7c-0.1,5.1-0.1,10.3-0.1,15.4C64.5,32.5,64.7,32.6,64.8,32.5z"/>
<path class="st0" d="M20.3,92.5c-0.6-0.1-0.9-0.3-1.1-0.2c-4.3,1.1-8.5,2.2-12.8,3.4C5.7,95.9,5,97.2,5,97.9
	c-0.1,3.8,0,7.6,0.3,11.4c0.1,0.8,1,2,1.8,2.2c4.3,1.1,8.7,2,13.2,3L20.3,92.5L20.3,92.5z"/>
<path class="st0" d="M118.8,26.6c-0.2-3-0.3-6.1-0.8-9c-1.1-6.6,0.5-5.6-6.3-6.7c-0.8-0.1-1.6-0.3-2.4-0.4c-5.8-0.9-5.8-0.9-8.2,4.4
	c-1.6,3.5-3,7.2-4.5,10.7c7.5,1.1,14.7,2.1,22.2,3.2C118.8,28,118.8,27.3,118.8,26.6z"/>
<path class="st0" d="M152.9,30.9c0.2-0.5-0.4-1.6-1-2c-2.9-2.1-5.9-4.2-9-6.1c-0.7-0.4-2.1-0.4-2.6,0.1c-3.9,3.4-7.7,6.9-11.5,10.3
	c6.4,4.4,12.5,8.5,18.7,12.8C149.4,41,151.2,35.9,152.9,30.9z"/>
<path class="st0" d="M100.9,177.3c1.8,3.8,3.5,7.8,5.5,11.6c0.3,0.6,1.6,1.2,2.4,1.1c3.9-0.6,7.8-1.4,11.7-2.4
	c0.8-0.2,1.7-1.5,1.8-2.5c0.4-2.8,0.4-5.6,0.5-8.4c0-1.4,0-2.8,0-4.2C115.3,174.2,108.3,175.7,100.9,177.3z"/>
<path class="st0" d="M154.6,163.3c-1.2-3-2.5-5.9-3.7-8.8c-6.3,4.8-12.2,9.3-18.3,14c3.6,3,6.9,5.9,10.4,8.6
	c0.6,0.4,2.1,0.3,2.8-0.2c2.4-1.5,4.7-3.2,6.9-4.9c4-3,3.9-3,2.1-7.5C154.8,164.1,154.7,163.7,154.6,163.3z"/>
<path class="st0" d="M109,152.5c-12.5-0.4-24.1-3.9-33.9-11.6c-15.7-12.3-21.4-29.1-18.6-48.3c2.4-16.8,12.5-29,27.5-36.4
	c12-5.9,25-7.1,37.8-2.2c10,3.8,15.4,11.6,11.5,23.3c-2.5,7.4-7.8,12.6-14.2,16.7c-7.5,4.9-15.5,8.2-24.7,7.6
	c-8.9-0.6-13-7.3-9.6-15.6c0.7-1.6,1.6-3.1,2.5-4.6c-4.6,4.3-8.4,9.2-9.6,15.6c-1,5.4,2,11,7.1,12.9c4.8,1.8,9.8,2.5,14.8,1.9
	c16.5-2,30.7-8.8,42.6-20.3c13.2-12.8,12.9-33.4-0.9-44.9c-12-10-26-15.7-41.8-16.1C81.6,30.2,65.2,34.7,51.1,46
	c-14,11.3-22.9,25.8-26,43.6c-2.2,12.4-1,24.7,3.5,36.7c5.7,15.1,14.9,27.4,28.7,36c19.1,11.9,39.6,14.2,60.9,8
	c19.1-5.6,32.3-18.5,41.8-35.5c0.3-0.5,0.4-1.2,0.6-1.8c-2.9,2-5.2,4.4-7.9,6.3C139.7,148.8,125,153,109,152.5z"/>
<path class="st0" d="M88.4,176.6c-3.2-0.4-6.4-0.9-9.5-1.6c-3.3-0.7-6.6-1.8-10.4-2.8c0,4.7,0,9,0.1,13.3c0,0.6,0.8,1.5,1.4,1.6
	c4,1.1,7.9,2,12,2.8c0.7,0.1,1.9-0.4,2.2-0.9c2-3.3,3.7-6.7,5.6-10.1C90.5,177.5,90.2,176.9,88.4,176.6z"/>
<path class="st0" d="M34.3,165.7c-0.2,0.5,0.2,1.7,0.6,2.1c3.1,2.7,6.4,5.3,9.6,7.8c0.5,0.4,1.6,0.7,2,0.4c3.8-2.7,7.5-5.5,11.2-8.3
	c-6-4.9-11.7-9.5-17.8-14.4C38,157.4,36.1,161.5,34.3,165.7z"/>
<path class="st0" d="M12.5,134.1c-0.5,0.4-0.6,1.8-0.3,2.4c1.7,3.5,3.5,7,5.4,10.4c0.4,0.6,1.4,1.4,2.1,1.3c4.5-0.8,9-1.8,13.4-2.7
	c-3.4-6.8-6.7-13.3-10.1-20.1C19.4,128.2,15.9,131.1,12.5,134.1z"/>
<path class="st1" d="M193.7,64.8c-3.2-7.4-9.6-10.7-16.5-12.9c-4.4-1.4-8.9-2-13.5-2.1c-2.3-0.1-4.5,0-6.8,0.1
	c-2,0.1-4.1,0.3-6.1,0.8c1.1,0.3,8.8,2.4,12.2,4.2c0.2,0.1,0.5,0.2,0.7,0.4c4.4,2.5,7.2,6.3,7.4,11.8c0.2,7-2.9,12.7-6.9,18
	c-0.1,0.2-0.3,0.4-0.4,0.5c-4.1,5.1-8.9,9.4-14.1,13.3c-10.1,7.4-21.3,12.7-33.3,15.9c-9.1,2.4-18.4,3.1-27.8,1.1
	c-9.9-2.1-16.8-10.8-12.7-21.5c0.7-1.8,1.4-3.6,2-5.4c-3.4,4.3-5.9,8.8-6.5,14.4c-0.8,7.3,2.3,12.8,7.8,16.9
	c6.9,5.1,15.3,6.4,23.6,6.7c5.4,0.2,10.8-0.7,16.2-1.3c9.4-1,18.3-3.7,26.9-7.3c6.2-2.5,12.2-5.4,17.9-8.8c3.6-2.2,7.1-4.6,10.4-7.3
	c7.4-6.1,14.5-12.5,18.4-21.6C194.8,75.6,196.1,70.3,193.7,64.8z"/>
</svg>
