<?xml version="1.0" encoding="utf-8"?>
<!-- Generator: Adobe Illustrator 22.1.0, SVG Export Plug-In . SVG Version: 6.00 Build 0)  -->
<svg version="1.1" id="图层_1" xmlns="http://www.w3.org/2000/svg" xmlns:xlink="http://www.w3.org/1999/xlink" x="0px" y="0px"
	 viewBox="0 0 200 200" style="enable-background:new 0 0 200 200;" xml:space="preserve">
<style type="text/css">
	.st0{fill:#BAC3D3;}
</style>
<path class="st0" d="M162.2,79.7h-3.1V65.3c0-32.5-26.6-59.1-59.1-59.1S40.9,32.8,40.9,65.3v14.4h-3.1c-8.1,0-15,6.9-15,15
	c0,22.8,0,61.2,0,84.1c0,8.1,6.9,15,15,15c41.6,0,82.8,0,124.4,0c8.1,0,15-6.9,15-15c0-22.8,0-61.2,0-84.1
	C177.2,86.2,170.6,79.7,162.2,79.7L162.2,79.7z M100,13.8c28.4,0,51.6,23.1,51.6,51.6l0,0v14.4H48.4V65.3
	C48.4,36.9,71.6,13.7,100,13.8z M169.7,178.8c0,4.1-3.4,7.5-7.5,7.5H37.8c-4.1,0-7.5-3.4-7.5-7.5V94.7c0-4.1,3.4-7.5,7.5-7.5h124.4
	c4.1,0,7.5,3.4,7.5,7.5V178.8z"/>
<path class="st0" d="M100,116.2c-5,0-9.1,4.4-9.1,10c0,3.7,1.9,6.6,4.7,8.4v16.3c0,2.8,2.2,5,4.7,5s4.7-2.2,4.7-5v-16.6
	c2.8-1.9,4.7-4.7,4.7-8.4C109.1,120.6,105,116.3,100,116.2L100,116.2z"/>
</svg>
