<?xml version="1.0" encoding="utf-8"?>
<!-- Generator: Adobe Illustrator 22.1.0, SVG Export Plug-In . SVG Version: 6.00 Build 0)  -->
<svg version="1.1" id="图层_1" xmlns="http://www.w3.org/2000/svg" xmlns:xlink="http://www.w3.org/1999/xlink" x="0px" y="0px"
	 viewBox="0 0 200 200" style="enable-background:new 0 0 200 200;" xml:space="preserve">
<style type="text/css">
	.st0{fill:#3D3179;}
	.st1{fill:none;}
	.st2{fill:#E58D2E;}
	.st3{fill:#FAAA46;}
	.st4{fill:#D48931;}
	.st5{fill:#EF9C48;}
	.st6{fill:#DB0303;}
	.st7{fill:#FFD400;}
</style>
<path class="st0" d="M156.9,53.8c-4.2-1.4-8.4-6.4-11.2-9.2s-5.2-14.5-5.2-14.5L100,15L59.6,30.1c0,0-2.4,11.7-5.2,14.5
	s-7,7.8-11.2,9.2l-4,1.2c0,0,0,54.8,26.7,81.4c26.5,26.7,34.2,26.1,34.2,26.1s7.6,0.6,34.2-26.1c26.7-26.5,26.7-81.4,26.7-81.4
	L156.9,53.8z"/>
<path class="st1" d="M100,167.7h-0.2l0.2,0.2l0.2-0.2H100z"/>
<path class="st2" d="M176.7,118.9l5.6-5.6c5.6-5.6,2.8-24.1,2.8-24.1h-4.4v-8.4c0-8.4-6.8-15.1-8.4-15.1s-6.8,4-6.8,4l-1.8,2.8
	c-2.6,19.7-9.2,49.4-27.1,67.3c-25.9,25.9-35,27.7-36.4,27.9l-0.2,0.2l-0.2-0.2c-1.4-0.2-10.4-2-36.4-27.9
	c-17.9-17.9-24.5-47.6-27.1-67.3l-1.8-2.6c0,0-5.2-4.2-6.8-4.2c-1.4,0-8.4,6.6-8.4,15.1v8.4h-4.4c0,0-2.8,18.5,2.8,24.1l5.6,5.6
	c0,0-6.2-1.8-8,0s1.2,14.1,12.1,24.9C38.1,154.6,45,158.1,45,158.1s-9.4-0.2-13.5,2l-4.2,2.4c0,0,1.4,13.7,23.1,18.3
	c16.7,3.4,35,7.4,43.6,8.8l2,0.2l2.4,0.2l2.8-0.2c1.8,1,26.7-4.6,48.4-9c21.7-4.6,23.1-18.3,23.1-18.3l-4.2-2.4
	c-4.2-2.2-13.5-2-13.5-2s6.8-3.4,17.7-14.3c10.8-10.8,13.9-23.1,12.1-24.9C183,117.1,176.7,118.9,176.7,118.9z"/>
<path class="st3" d="M160.7,51.2c-4.4-1.2-8.8-6.6-11.9-9.6c-3-3-5.6-15.5-5.6-15.5l-43-16.1L57,26.1c0,0-2.6,12.5-5.6,15.5
	c-3,3-7.4,8.2-11.9,9.6l-4.4,1.4c0,0,0,8.2,1.4,19.9c2.6,19.7,9.2,49.4,27.1,67.3c25.9,25.9,35,27.7,36.4,27.9h0.4
	c1.4-0.2,10.4-2,36.4-27.9c17.9-17.9,24.5-47.6,27.1-67.3c1.4-11.7,1.4-19.9,1.4-19.9l-4.4-1.4H160.7z M158.5,80.1
	c-2.8,18.1-9.4,41.6-24.3,56.2l-2.8,2.8c-0.8-0.8-1.8-1.4-2-1c-0.4,0.8-1.8,0.4-1.8,0.4v-3h-0.8v0.6h-0.4v-1h-0.6v0.6h-0.2v-0.6
	h-0.6v0.4h-0.4v-0.8h-0.8v1h-0.4v-1h-0.6v1h-0.4v-1.2h-1.2v4.4l-0.6,0.6l-0.8-0.6l-0.2-0.2l-1-0.2c0,0-3.2-0.8-4.6,0
	c-1.4,1-2.8,0.4-2.8,0.4v-6.4h-1.2v1H109v-1.6h-0.8v1.2h-0.6v-2h-1.2v0.8h-0.6v-1.4h-1.2v1.4h-1.4v-1.4H102v1.4h-1.2v-1.4h-1.4v1.4
	h-1v-1.4h-1v1.6h-1.6v-1.6h-1.4v6.6c0,0-4.8,0.6-5.2,0.4c-0.4-0.4-1.4,0-1.4,0l-2.6,0.6l-0.4,2h-0.8l-2.4-2
	c-0.8-0.8-1.6-0.8-1.8-0.8l-0.2-0.2v-3.8h-1.4v-1.2h-0.6v0.8h-0.6v-1h-0.6v0.8h-0.6v-1h-0.8v0.8h-0.4v-1h-1.2v1h-1.2v-1h-0.8v4.8
	c0,0-2-1.4-3-1.4c-0.8,0-1.4,1.4-1.6,2.2l-0.8-0.8c-13.5-15.9-21.9-35.5-24.3-56.2C39.1,65.6,39.1,55,39.1,55l4-1.4
	c4.2-1.2,8.4-6.2,11.2-9s5.2-14.5,5.2-14.5L100,15l40.6,15.1c0,0,2.2,11.7,5,14.5s7,7.8,11.2,9.2l4,1.2
	C160.9,55,160.9,65.8,158.5,80.1z"/>
<circle class="st4" cx="100" cy="12.9" r="1.4"/>
<circle class="st4" cx="95.8" cy="14.5" r="1.4"/>
<circle class="st4" cx="91.6" cy="16" r="1.4"/>
<circle class="st4" cx="87.4" cy="17.6" r="1.4"/>
<circle class="st4" cx="83.2" cy="19.1" r="1.4"/>
<circle class="st4" cx="79" cy="20.6" r="1.4"/>
<circle class="st4" cx="74.8" cy="22.2" r="1.4"/>
<circle class="st4" cx="70.7" cy="23.7" r="1.4"/>
<circle class="st4" cx="66.5" cy="25.3" r="1.4"/>
<circle class="st4" cx="62.3" cy="26.8" r="1.4"/>
<circle class="st4" cx="58.2" cy="28.6" r="1.4"/>
<circle class="st4" cx="49.9" cy="46.3" r="1.4"/>
<circle class="st4" cx="53.4" cy="42.2" r="1.4"/>
<circle class="st4" cx="41.5" cy="52.5" r="1.4"/>
<circle class="st4" cx="37" cy="54" r="1.4"/>
<circle class="st4" cx="46.1" cy="49.8" r="1.4"/>
<circle class="st4" cx="55.6" cy="37.5" r="1.4"/>
<circle class="st4" cx="57" cy="33.1" r="1.4"/>
<circle class="st4" cx="104.2" cy="14.5" r="1.4"/>
<circle class="st4" cx="108.4" cy="16" r="1.4"/>
<circle class="st4" cx="112.6" cy="17.6" r="1.4"/>
<circle class="st4" cx="116.8" cy="19.1" r="1.4"/>
<circle class="st4" cx="121" cy="20.6" r="1.4"/>
<circle class="st4" cx="125.2" cy="22.2" r="1.4"/>
<circle class="st4" cx="129.3" cy="23.7" r="1.4"/>
<circle class="st4" cx="133.5" cy="25.3" r="1.4"/>
<circle class="st4" cx="137.7" cy="26.8" r="1.4"/>
<circle class="st4" cx="141.8" cy="28.6" r="1.4"/>
<circle class="st4" cx="150.1" cy="46.3" r="1.4"/>
<circle class="st4" cx="146.6" cy="42.2" r="1.4"/>
<circle class="st4" cx="158.5" cy="52.5" r="1.4"/>
<circle class="st4" cx="163" cy="54" r="1.4"/>
<circle class="st4" cx="153.9" cy="49.8" r="1.4"/>
<circle class="st4" cx="144.4" cy="37.5" r="1.4"/>
<circle class="st4" cx="143" cy="33.1" r="1.4"/>
<g>
	<path class="st5" d="M143.4,69.5c0-2.2-0.4-4.4-0.8-6.6c-2.5-11.6-9.9-21.6-20.3-27.3c-5.8-3.3-12.4-5.2-19.1-5.4h-4.4l-0.6,0.2
		C87.1,31,76.7,35.8,69.1,43.8C62,51,57.8,60.6,57.4,70.7v5.2l0.4,3C59,87.8,63,96,69.3,102.4l0.2,0.2l0.4,0.4v0.2l-2,10.4l-0.4,2.6
		l1.2,0.4c1,0.2,1,0.2,1,1c0,0.4,0.2,0.4,0.4,0.4l2.2,0.4c0.4,0.2,0.6,0.2,0.6,0.8v1l3.6,0.4c0.4,0,0.4,0.2,0.4,0.4l0.2,1h6.4
		l0.2-2.4l0.2-0.4l1-0.6v1.4c0,0.4,0,0.4,0.4,0.4l1.8,0.2l0.2,0.4l0.2,0.8h3.6l0.4-0.2c0.2-0.4,0.4-0.6,0.8-0.6h0.4
		c0.4,0,0.8,0.2,0.8,0.6l0.4,0.2h3.8l0.6-0.2c0-0.4,0.2-0.4,0.4-0.4h2.2c0.2,0,0.4,0,0.6,0.4l0.4,0.2c1.4-0.1,2.8-0.2,4.2-0.2
		c0-0.4,0.4-0.6,0.6-0.4h0.4c0.6-0.2,1,0,1.2,0.4l0.4,0.2h3.4l0.2-1.2l2.4-0.2v-1.8l1.2,0.8v0.4l0.2,2.2h6.4
		c0.1-0.5,0.3-0.9,0.4-1.4l2.8-0.4h1v-1.4l0.4-0.4l1.8-0.2c1-0.2,1-0.2,1-1.2l0.4-0.4l1.8-0.4v-0.4l-2.2-10.8l-0.4-2
		c7.8-7.1,12.7-16.8,13.7-27.3l0.2-2.6v-3.2L143.4,69.5z M106.8,101.4c-1.2-2-4-3.2-7-3.2c-3,0-5.6,1.2-7,3.2
		c-12.9-3.2-22.1-14.9-22.1-28.7c0-16.5,13.5-29.5,29.9-29.5s29.9,13.3,29.9,29.5C130.5,86.5,120.1,98.2,106.8,101.4z"/>
	<path class="st6" d="M77.1,122.1l-0.2-0.8c0-0.4,0-0.6-0.4-0.6l-3.8-0.4l0.2-1c0-0.4-0.2-0.6-0.6-0.6l-2.4-0.4l-0.2-0.4
		c-0.2-1-0.2-1-1-1.2l-1.2-0.2l0.4-2.6l2-10.6l0.4-1l2.8-5.2l0.4,0.2c5.7,5.1,12.7,8.5,20.3,9.8c0.8,0.2,1.6,0,2.4-0.6l-0.8-0.2
		c0.2-1.6,2.2-3,4-3.2c2,0,4,1.2,4.6,3l-0.6,0.2v0.2l0.8,0.4h2c7.4-1.2,13.9-4.4,19.5-9.2l0.8-0.6l1,1.6l2,4l0.6,2.4l2,10.8v0.6
		l-1.6,0.4c-0.4,0-0.4,0.2-0.4,0.4c-0.2,1-0.2,1-1,1l-1.8,0.4c-0.4,0-0.4,0.2-0.4,0.4v1.4h-1l-2.8,0.4l-0.4,0.2v1.2h-6.4l-0.2-2.4
		l-0.2-0.4l-1.2-0.6v1.8l-2.4,0.2l-0.2,1.2h-3.4l-0.2-0.2c-0.4-0.4-0.8-0.6-1.4-0.6h-0.2c-0.4,0-0.6,0-0.8,0.4
		c0,0.4-0.2,0.4-0.4,0.4c-1.4-0.2-2.8-0.3-4.2-0.4l-0.4-0.2h-2.4l-0.4,0.2l-0.4,0.4H94l-0.4-0.2c-0.2-0.4-0.4-0.6-0.8-0.6h-0.4
		l-1,0.4l-0.4,0.4h-3.4l-0.2-1l-0.4-0.2l-1.8-0.2c-0.2,0-0.4,0-0.4-0.4v-1.4l-1,0.6l-0.2,0.4l-0.2,2.4L77.1,122.1z M117.1,111.9
		l-0.4,0.8v9h0.4l4.4-0.2c0.4,0,0.6-0.2,0.6-0.6l0.2-0.6l0.2-0.2l2.4-0.4c1-0.2,1-0.2,1.2-1.2l0.2-0.4l2-0.4c0.6,0,1-0.4,1.2-1
		l0.4-0.4l1.4-0.2v-0.4l-2.6-12.7c0-0.4-0.2-0.6-0.6-0.8v1.2c0.7,3.9,1.3,7.8,2,11.7c-0.7,0.1-1.5,0.1-2.2,0.2l-1.4-9l-0.4-1
		c-0.4,0.2-0.6,0.6-0.4,1l0.4,3l0.8,6.8l0.4,0.2h1v0.8l-3.8,0.4l-0.8-9.6c-0.8,0.4-0.8,0.4-0.8,1.2l0.4,7l0.2,2.2h1.4v0.8h-4v-0.8
		l-0.2-6.6l-0.4-1.2h-0.2l-0.4,1.6l0.2,6.4v1.6h1.2v0.8h-3.2l-0.2-0.2C117.5,117.7,117.3,114.8,117.1,111.9z M69.5,115.1l0.2-0.4
		l1.8-11.2v-1.2l-0.6,0.8l-2.2,11.5l-0.2,1.4l0.8,0.2c0.6,0,1,0.4,1.2,1c0,0.4,0.2,0.4,0.4,0.6l1.8,0.4c1,0.2,1,0.2,1,1v0.2l0.4,0.4
		l2.4,0.2c0.8,0,1.2,0.4,1.2,1.2l0.4,0.4h4.8v-0.2v-8.8l-0.2-0.6c-0.4,0-0.6,0.2-0.6,0.6l-0.2,6.8l0.2,1.4h-3.6v-0.8h1.2v-0.6
		l0.2-7.2l-0.4-1.8l-0.4,1.6l-0.2,5l-0.2,2.2h-4v-1h1.4v-0.2l0.8-9.4l-0.2-0.4l-0.8-0.4l-0.6,9.8l-4-0.6l0.2-0.8h1.2l0.2-0.4
		l1.2-9.6c0-0.4,0-0.6-0.4-1l-0.4,1l-1,6.8l-0.4,2.6L69.5,115.1z M110.6,120.7h-1.4l-0.4-0.4l-0.2-2.4v-0.6c0.2-0.4,0-0.8-0.4-1
		l0.4-0.4h-0.2l-0.6,0.6v3.6h-2v-0.8c0-0.6,0-0.8-0.8-0.8l-0.2,2.6h-2.2l-0.2-2c-0.4-0.2-0.6,0-0.6,0.4l-0.2,0.6
		c-0.2,0.2-0.2,0.4-0.6,0.4h-1.8c-1,0-1,0-1.2-1c-0.2-0.4-0.4-0.6-0.6-0.4l-0.4,1.8h-2.2l-0.2-2.4c-0.8,0.2-0.8,0.2-0.8,0.8v0.8h-2
		v-1v-2.6l-0.4-0.6l-0.4,0.2l0.4,0.4l-0.4,0.2c0.2,1.4-0.2,2.6-0.2,4H89v-3.6l-0.2-0.8c-0.4,0.4-0.6,0.6-0.4,1.2v1.8l-0.4,0.4h-1.2
		c-0.4,0-0.4-0.2-0.4-0.4l-0.2-1c-0.8,0.4-0.4,1-0.4,1.6h2.2c0.2,0.5,0.4,1.1,0.6,1.6h2.2l0.2-0.2c0.4-0.4,0.8-0.4,1.4-0.4h1
		l0.8,0.2c0.2,0.4,0.4,0.4,0.8,0.4h2.2c0.2,0,0.4,0,0.6-0.4l0.4-0.4h3.2c0.4,0,0.6,0.2,0.8,0.6l0.2,0.2c1,0,2,0,3,0
		c0.4-0.6,0.8-0.6,1.4-0.6h1l0.8,0.2l0.4,0.4h2.2l0.4-0.4l0.2-1.2h2.2c-0.2-0.6,0.4-1.2-0.4-1.6l-0.2,1l-0.2,0.4h-1.8v-2.2l-0.4-1.2
		c-0.4,0.4-0.2,0.8-0.2,1.4L110.6,120.7z M72.9,100c-0.6,0.6-0.6,1-0.2,1.8c0.8,1.6,1.8,3,3.2,4.4c2.2,2,4.6,3.6,7.2,4.8
		c2.6,1.2,5.2,1.8,8,1.8l2.6-0.4h-2c-4-0.2-7.2-1.4-10-4.2c-1.6-1.8-3-4-3.8-6.2c-0.2-0.6-0.6-0.8-1-1c0.6,3.8,2.8,6.4,5.6,8.8
		c-0.6,0-1.2-0.2-1.8-0.8l-2.4-2.2c-1.6-2-2.6-4.2-3.4-6.6c-0.2-0.8-0.2-0.8-1-0.8c0.8,3,2.2,5.4,4,7.8
		C75.1,105.6,74.1,102.6,72.9,100z M106,112.3v0.2h0.2c2.2,0.6,4.4,0.4,6.6-0.2c3.6-0.8,6.8-2.6,9.6-4.8c2-1.6,3.6-3.6,4.6-5.8
		c0.4-0.6,0.2-1-0.2-1.6l-1,2c-0.8,1.6-1.6,3-2.8,4.2l-1.4,1c1.8-2.4,3.2-4.8,4-7.8c-0.8,0-0.8,0-1,0.6c-1,3.5-3,6.7-5.8,9
		c-0.4,0.4-1,0.8-1.6,0.6c2.6-2.2,4.8-4.8,5.6-8.6c-0.6,0.2-0.8,0.6-1.2,1l-1.6,3.4C117.2,110.3,111.7,113,106,112.3z M79.1,102.8
		l0.2,0.2c0.8,1.6,1.8,3.2,3,4.4c1.6,1.8,3.6,3.2,6,3.8s4.6,0.2,7-0.6l1.4-0.4V110h-0.4l-3.2,0.6c-3,0.2-5.8-0.6-8.2-2.2
		c-2.2-1.4-3.8-3.4-5.2-5.4C79.7,102.6,79.5,102.6,79.1,102.8z M120.5,102.8c-0.2-0.2-0.4-0.2-0.6,0.2c-0.8,1.4-1.8,2.6-3,3.8
		c-2.7,2.8-6.6,4.2-10.4,3.8l-3-0.6c-0.2,0-0.4-0.2-0.6,0.2l4.2,1.2c3.2,0.4,6-0.2,8.6-2.2c1.4-1.2,2.4-2.4,3.4-4L120.5,102.8z
		 M91.2,114.9l1.8,1.4h0.2c0.4-0.4,0.8,0,1.2,0.2l-0.4,0.8l2.4,0.8l0.8-0.2c0.4-0.4,0.6-0.4,1,0.2l0.6,0.2h1.8c0.6,0,1,0,1.2-0.4
		c0.2-0.4,0.6-0.2,0.8-0.2c0.2,0.2,0.6,0.6,0.8,0.4l2.4-0.8l-0.2-0.8c0.4-0.2,0.6-0.6,1-0.2h0.4l1.8-1.2l-0.4-0.4v0.2h-0.6h-0.4
		l-0.8,0.8c-0.4-0.2-1-0.4-1.2-0.2c-0.4,0.2-0.6,0.6-0.4,1l-0.2,0.4l-1.2,0.6c-0.2-0.2-0.4-0.8-0.8-0.8c-0.2-0.2-0.6,0-1,0.2
		c-0.4,0-0.8,0-0.8,0.4s-0.2,0.4-0.6,0.4h-1c-0.4,0-0.6,0-0.6-0.4s-0.2-0.4-0.6-0.4l-0.4-0.2c-0.6-0.2-1,0-1.4,0.6l-0.2,0.2
		l-1.4-0.6c0.2-0.6,0.4-1-0.2-1.4c-0.4-0.2-1,0-1.4,0.2l-0.6-0.6c-0.2-0.2-0.4-0.6-0.6-0.2C91.8,114.9,91.4,114.3,91.2,114.9z
		 M99.8,104.6h-0.6c-1,0.2-2.2,1-2.4,2c-0.4,1.4,0.6,3,2.2,3.4c1.6,0.4,3.2-0.4,3.6-2v-1.4C102.2,105.4,101.2,104.6,99.8,104.6z
		 M105.2,113.5l-0.6-0.4c-0.4-0.2-0.6,0-1,0.2c-2,1.2-4.2,1.6-6.4,0.8l-2.4-1.4l-0.8,0.6C96.8,116.1,101.8,116.5,105.2,113.5z
		 M83.7,117.7c0.2,0.4,0.6,0.4,1,0.2l5.8-3.4l0.4-0.4l-0.4-0.2l-1-0.4l-0.6-0.2h-0.6l-3.4,2.2l-1.4,1c0.2,0.6,0.4,0.6,0.8,0.2
		l4.2-2.6c0.4-0.2,0.6-0.2,1,0.2L83.7,117.7z M116.1,117.7l-5.8-3.4c0.2-0.4,0.6-0.4,0.8-0.2l4.2,2.8c0.6,0.2,0.8,0.2,0.8-0.4
		l-4.8-3.2H111l-1,0.2c-0.4,0-1,0.2-1.2,0.6l0.6,0.4l5.6,3.4C115.5,118.3,115.7,118.1,116.1,117.7z M103.4,109.2
		c2.8,0.8,5.8,0.8,8.4-0.4c2.2-1,3.8-2.4,5.2-4.2c-0.6,0.2-1.2,0.2-1.6,0.8l-1.6,1.4c-2.7,2.1-6.3,2.9-9.6,2.2L103.4,109.2z
		 M96.4,109.2l-1.2-0.2c-2.4,0.4-4.8,0.2-7.2-1c-1.4-0.6-2.8-1.6-4-2.8c-0.2-0.4-0.8-0.4-1.2-0.6C86.1,109.4,91.2,110.4,96.4,109.2z
		 M96.2,111.9c1.4,1.4,4.8,1.6,6.4,0.4l-1.4-0.8H101c-1.2,0.4-2.4,0.4-3.4-0.2h-0.4L96.2,111.9z M110.4,107h-0.2c-2,0.4-4,1-6.4,0.8
		c0,0.2,0,0.4,0.4,0.4h2.2c1.2,0,2.2-0.2,3.2-0.6L110.4,107z M89.4,107c0.2,0.4,0.6,0.6,1.4,1c1.6,0.4,3.2,0.4,4.8,0.2
		c0.4,0,0.2-0.2,0.2-0.4C93.6,108,91.6,107.4,89.4,107z M112.3,113.3l3.6,2.4c0.2-0.4,0.2-0.6-0.2-0.8l-2.6-1.8
		C112.7,112.9,112.5,112.9,112.3,113.3z M83.7,115.7l3.8-2.4c-0.4-0.4-0.6-0.4-0.8-0.2l-2.8,1.8C83.7,115.1,83.5,115.3,83.7,115.7z
		 M116.3,113.7l-1.8-1l-0.4,0.2l0.2,0.4l1.2,1L116.3,113.7z M84.1,114.3l1.2-1l0.2-0.4l-0.4-0.2l-1.6,1L84.1,114.3z"/>
	<path class="st4" d="M103.2,30.3h1.8c10.9,0.9,21.1,6,28.3,14.3c6.1,6.9,9.6,15.7,10,24.9v3.6l-0.2,2.6
		c-0.9,9.9-5.2,19.1-12.3,26.1l-0.2,0.4l-0.4-1l0.2-0.4c14.2-14.3,16-36.7,4.2-53c-7.6-10.3-19.6-16.4-32.3-16.5
		c-23.2-1.1-42.8,16.8-44,39.9c0,1-0.1,2.1,0,3.1c0.4,10.4,4.2,19.5,11.2,27.1v0.6l-0.2,0.6l-1.8-2c-6-6.9-9.6-15.4-10.2-24.5v-5.2
		c1.1-22,18.8-39.5,40.8-40.4l0.6-0.2H103.2z"/>
	<path class="st4" d="M109.8,103.4l-1-1.8l-1,0.6l-0.8-1l-0.2-0.4l0.6-0.8l-1.4-1.2l-0.6,0.8L104,99l0.6-1l-1.8-0.8l-0.4,0.8
		l-0.2,0.2l-1.6-0.2v-1.2h-1.8v0.8c0,0.4,0,0.4-0.4,0.4l-1,0.2c-0.2,0.2-0.4,0-0.4-0.2l-0.4-1l-1.8,1l0.6,1l-1.2,0.8l-0.8-1L92,100
		l0.6,1l-0.2,0.2l-0.8,1l-1-0.4l-1,1.6l1.2,0.6l-0.4,1.2l1.4,0.2c0.6-1.4,1.4-2.8,2.4-3.8c1.2-1.2,2.8-1.8,5-2c2.4-0.2,4.6,0.6,6,2
		c1,1,1.8,2.2,2.4,3.6l1.6-0.4l-0.4-0.8L109.8,103.4z"/>
	<path class="st4" d="M103.8,101.8c-2.5-1.8-5.8-1.8-8.2,0c-1.4,1-2.6,2.4-2.6,3.8l1.2,0.4c0.8-2.2,2.2-3.4,4.2-4h2.6
		c2,0.6,3.4,1.8,4.2,3.8l1.2-0.4C106.2,104.2,105.2,102.8,103.8,101.8z M59.4,78.9v-0.2l-0.2-1.4l1.2-1l8.6-7.8l0.2-0.2l-0.2,1.8
		l-0.4,0.2l-8.8,8.4L59.4,78.9z M141.2,78.5l-1.6-1.4c-2.6-2.5-5.1-4.9-7.6-7.4l-0.4-1.8l0.2,0.2l9.4,8.4c0.2,0.2,0.4,0.4,0.2,0.8
		L141.2,78.5z M60.2,81.5l-0.4-1.4l0.2-0.4l8-7.4l0.8-0.6v1.4l-0.2,0.4l-7.4,7L60.2,81.5z M140.4,81.1l-3-3l-5-4.6
		c-0.4-0.4-0.6-0.6-0.4-1.2v-1l0.4,0.2l8,7.8c0.4,0.2,0.4,0.4,0.2,0.6L140.4,81.1z M68.7,98.8l-0.8-1.2l-0.2-0.2l4.4-9.6l1,1.2v0.4
		l-4.4,9.2V98.8z M73.7,89.4l0.2,0.2l0.8,1.2L74.1,92l-3.6,8.2l-0.2,0.2l-0.8-1V99l4.2-9.4V89.4z M128.3,87.1l2.2,5.4
		c0.6,1.6,1.2,3.2,1.8,4.8l-0.8,0.8l-0.2-0.4l-4-8.8l0.2-0.6L128.3,87.1z M129.9,100l-0.6-1.4l-3.6-8l0.2-0.6l0.6-1l0.6,1.2l3.6,8.2
		l-0.2,0.6L129.9,100z M61.2,60.8c0.4,0.2,0.6,0.4,0.4,1c-1.2,4.2-1.8,8.4-1.6,12.9c0,0.4-0.2,0.6-0.6,0.8
		C59.2,70.5,59.8,65.4,61.2,60.8z M139.8,60.4c1.4,4.8,2,9.6,1.4,14.7c-0.2-0.2-0.4-0.4-0.4-1c0.2-4.2-0.2-8.6-1.4-12.9L139.8,60.4z
		 M71.9,56.8c-0.6-0.8-0.6-0.8-1.4-0.4h-0.2c-0.4,0.2-0.6,0-0.4-0.4l0.6-1l1.2-1l0.6-0.2l0.4,0.2c0.2,0.4,0.2,1-0.2,1.4v0.8l1.2-0.2
		c0.4,0,0.4,0,0.4,0.4l-0.2,1c-0.2,0.4-0.6,0.4-1,0.2h-0.2l-0.4,0.2c-0.2,0-0.6,0.2-0.8-0.2c-0.2-0.2,0-0.6,0.2-0.8H71.9z
		 M129.5,56.4l0.2,0.8c0,0.4-0.2,0.6-0.6,0.4l-0.4-0.2h-0.4c-0.4,0.2-0.8,0.2-0.8-0.2l-0.4-1.2l0.4-0.2l1.4,0.2l-0.2-0.8v-1.4
		l0.4-0.2l0.8,0.6l0.6,0.4l0.8,1v0.6h-0.4h-0.2C130.1,55.8,129.7,56,129.5,56.4z M62.6,62.2c0.2,0.2,0.4,0.4,0.2,0.8
		c-0.8,3-1.2,6.2-1.2,9.2v1.2L61,74.1C60.8,70.1,61.4,66,62.6,62.2z M138.6,61.8c1,4,1.4,7.8,1.2,11.9c-0.4,0-0.6-0.2-0.6-0.8
		c0-3.4-0.2-6.8-1-10.2C138,62.2,138.4,62.2,138.6,61.8z M62.4,73.1c0-4,0.6-7.8,1.8-11.5h0.6l-0.6,1.8c-0.8,2.8-1.2,5.8-1.2,8.8
		C63,72.7,62.8,72.7,62.4,73.1z M136.4,61.4l0.4-0.2c1.2,3.8,1.6,7.6,1.6,11.5c-0.4-0.2-0.6-0.4-0.6-0.8c0-3.4-0.4-6.8-1.4-10V61.4z
		 M64,71.7c0.2-3.4,0.8-6.6,1.8-9.6h0.4l-0.6,2.8c-0.6,2-0.8,4-1,6C64.6,71.5,64.6,71.5,64,71.7z M134.8,61.8l0.6-0.2
		c0.8,3.2,1.4,6.4,1.4,9.6c-0.4,0-0.6-0.2-0.6-0.8c0-2.8-0.4-5.4-1.2-8.2L134.8,61.8z M65.6,51.4l0.8,1.8c0.4,0.6,0.4,1.2,0,1.6
		l-0.6,0.6h-0.4v-0.8L65,54.2c-0.4-0.2-0.2-0.6-0.2-0.8C65,52.6,65,52,65.6,51.4z M63.4,89l1.2,2.4l2,3.8c0.4,0.4,0.2,0.6,0,1
		c-1.6-2.2-2.8-4.6-3.8-7L63.4,89z M137,88.5l0.6,0.2c-1,2.4-2.4,4.6-4,6.8c-0.4-0.4-0.4-0.6,0-1C134.9,92.7,136,90.7,137,88.5z
		 M135.8,51.2c0.6,0.8,0.6,1.6,0.8,2.4l-0.2,0.2c-0.4,0.2-0.4,0.4-0.4,0.8l-0.2,0.4l-0.2,0.4l-0.4-0.2l-0.4-1l-0.2-0.8L135.8,51.2z
		 M85.5,104l-1-0.4l-0.2-0.2l-1-4.8c0.8,0.2,1,0.4,1.2,1L85.5,104z M114.7,103.4l0.4-2.2l0.6-2.2l0.6-0.8l0.6-0.2l-0.6,2.8l-0.6,1.8
		c0,0.4-0.2,0.6-0.6,0.6L114.7,103.4z M99.2,32.1c0,0.4-0.2,0.6-0.6,0.6c-2.2,0-4.2,0.4-6.4,0.8h-0.4c0-0.4,0.2-0.6,0.6-0.8
		C94.6,32.3,96.9,32.1,99.2,32.1z M102.6,31.9l3.2,0.4l3.6,0.4c0.4,0.2,0.6,0.4,0.6,0.8l-1.8-0.2l-5-0.6
		C102.8,32.7,102.8,32.7,102.6,31.9z M85.3,38.3c0.8,0,1.6,0.2,2.4,0.8c0.4,0.4,0.4,0.6-0.2,0.6c-0.8,0.4-1.8,0.2-2.6-0.2l-0.4-0.2
		l-0.2-0.8l0.6-0.2H85.3z M115.1,39.9l-1-0.2c-0.4-0.2-0.6-0.4-0.2-0.8l1.8-0.6l1.4-0.2c0.2,0,0.4,0.2,0.2,0.6
		c0,0.4-0.2,0.6-0.6,0.8L115.1,39.9z M118.9,36.1c0.6,0,1.6,0.6,1.6,1.2l0.2,1.8c0,0.2-0.2,0.4-0.4,0.2c-0.6-0.2-1-0.4-1.2-1.2
		L118.9,36.1z M82.9,36.1c0.2,1-0.2,1.8-0.6,2.6l-1,0.8l-0.4-0.2c-0.2-0.8,0-1.6,0.4-2.2C81.5,36.5,82.1,36.3,82.9,36.1z M103,33.7
		l5.4,0.6l1.8,0.2l0.2,0.6H110c-2.2-0.4-4.4-0.8-6.6-0.8C103,34.3,103,34.3,103,33.7z M98.8,33.7v0.4l-5.4,0.8l-1.6,0.4l-0.4-0.2
		l0.2-0.4l2-0.4l4.8-0.6H98.8z M135,76.9c0.4,1.4-0.6,3.4-2,3.6C132.5,79.1,133.5,77.3,135,76.9z M78.7,46.6l-0.2,0.8l-0.8,1.4l-1,1
		L76.3,50l-0.2-0.6l0.4-1.6c0.4-0.8,1.4-0.8,2-1.2H78.7z M65.8,77.1c1.2,0.4,2.2,2.2,1.8,3.6C66.5,80.9,65.2,78.5,65.8,77.1z
		 M74.7,50.2c0.6,0.8,0.6,1.6,0.2,2.2c-0.2,0.6-0.8,1-1.4,1.2l-0.2-0.2c-0.4-0.6-0.2-1.4,0.2-1.8l0.6-0.6L74.7,50.2z M87.9,40.9
		c0,0.8-0.2,1.4-1,1.8l-1.4,0.2c-0.4,0-0.6-0.2-0.6-0.6c0-0.6,0.4-0.8,0.8-1l1.8-0.4H87.9z M115.3,34.9v-0.2l0.2-0.2h0.2
		c0.6,0.6,1.4,1,1.8,1.8l0.2,0.6l-0.2,0.4l-0.6,0.2C115.5,37.1,115.3,36.1,115.3,34.9z M122.9,46.4l0.4,0.2c1.2,0.2,2,1.2,2,2.6
		l-0.2,0.6l-0.6-0.2l-1.4-2L122.9,46.4z M86.5,34.3l-0.4,2.2c-0.2,0.8-0.8,1-1.4,1c-0.4,0.2-0.8-0.4-0.6-0.8l1.2-1.6l0.8-0.6
		L86.5,34.3z M126.7,50.2l1.4,1.4c0.4,0.6,0.2,1.2,0,1.6l-0.6,0.2c-0.8-0.4-1.4-1-1.2-2l0.2-1.2H126.7z M115.7,42.9l-1.4-0.4
		c-0.4-0.4-0.6-0.8-0.6-1.4l0.2-0.2l2,0.4c0.6,0.2,0.8,0.8,0.8,1.2C116.5,42.9,116.1,42.9,115.7,42.9z M64.2,54.8l0.4,1l0.2,1.2
		c0.2,0.6-0.2,0.8-0.4,1.2H64c-1-0.8-1.2-2.2-0.4-3l0.4-0.4H64.2z M137.2,54.6c1.2,0.8,1,2.6,0,3.4h-0.4c-0.2-0.2-0.6-0.6-0.4-1
		c0-0.8,0.4-1.4,0.6-2.2L137.2,54.6z M64.4,85.1c0-1,0.4-2,0.6-2.8c0.2-0.4,0.4-0.2,0.4,0l0.4,1.2c0.2,1-0.4,1.8-0.8,2.6l-0.2,0.2
		l-0.4-0.4V85.1z M136.2,84.7l-0.2,0.8l-0.4,0.2h-0.2c-0.6-1-1-2-0.6-3.2l0.2-0.8c0.2,0,0.4-0.2,0.4,0.2l0.8,2.6V84.7z M69.5,55v0.2
		c-0.2,1.2-1.8,2-2.8,1.8c-0.4-0.2-0.4-0.4-0.2-0.6l1.2-1.4H69.5z M64.6,78.7l0.2,0.8l-0.4,2L64,81.9c-0.6,0.2-0.8,0-0.8-0.4v-1.6
		C63.4,79.1,64,78.9,64.6,78.7z M64.6,60.2c-0.2-1.4,1.6-2.6,3.4-2.4C67.7,59,65.8,60.2,64.6,60.2z M136.6,60
		c-1.6-0.2-2.8-1-3.4-2.4c0.8,0,1.4,0,2.2,0.4C136,58.4,136.6,59,136.6,60z M131.7,54.8h1c1-0.2,1.6,0.6,2.2,1.4l-0.2,0.4
		c-0.8,0.2-1.4,0.2-2-0.2l-0.8-0.8L131.7,54.8z M136,78.3c1.2,0.4,1.4,1,1.4,2.6c0,0.2,0,0.6-0.4,0.6c-0.2,0.2-0.6,0-0.8-0.2
		c-0.4-0.8-0.6-1.8-0.2-2.8V78.3z M89.8,33.5c0,0.6,0,1.2-0.6,1.8c-0.4,0.6-1,0.6-1.4,0.6s-0.6-0.2-0.6-0.6c0.4-1,1.2-1.4,2-1.8
		H89.8z M112.1,33.5c0.8-0.2,1.4,0.2,1.8,0.6c0.4,0.4,0.6,1,0.6,1.4c0.2,0.4-0.2,0.4-0.4,0.4c-1.2,0-1.8-0.6-2-1.8V33.5z M77.1,96.2
		l-0.4-1l0.2-1.6c0-0.2,0.2-0.4,0.4-0.2c0.8,0.4,1.2,1,1.6,1.8v0.4h-0.4h-0.2c-0.2-0.2-0.6-0.2-0.8,0.2l-0.2,0.4H77.1z M79.5,43.1
		l-1.4-0.2l-0.4-0.6l0.4-0.6c1-0.4,1.8,0,2.6,0.4c0.4,0.2,0.2,0.6,0,0.8L79.5,43.1z M123.1,95.8l-0.6-0.6c0-0.4-0.2-0.4-0.4-0.2
		l-0.4,0.2h-0.4v-0.4c0.4-0.8,0.8-1.4,1.6-1.8c0.2-0.2,0.4-0.2,0.6,0.2l-0.2,2L123.1,95.8z M121.9,43.1l-1-0.4c-0.4,0-0.4-0.6,0-0.6
		c0.8-0.4,1.6-0.8,2.4-0.6c0.4,0,0.6,0.4,0.6,0.8s-0.2,0.4-0.6,0.6L121.9,43.1z M66.9,64.8c0.8,0.8,0.8,1.8,0.4,2.8l-0.6,0.4
		c-0.4,0.2-0.6,0.2-0.8-0.2l-0.2-1l0.6-1L66.9,64.8z M64.4,88.8l0.4-0.2l1.6,3.2l1.2,1.8c0.2,0.4,0.2,0.4-0.2,1
		C66.2,92.8,65.2,90.8,64.4,88.8z M135.6,87.9l0.4,0.4c-0.8,2-2,3.8-3.2,5.6v-1l2.6-4.6L135.6,87.9z M69.1,51.6c0-0.6,0.2-1,0.8-1.2
		l2.2-0.4h0.2C72.3,51.4,70.9,52,69.1,51.6z M68.5,65.2v-0.8l0.6-1.4l1-1.2c0.2-0.2,0.4,0,0.4,0.2v0.8L70.3,64c0,0.8-0.2,0.8-1,0.4
		C69,64.7,68.7,65,68.5,65.2z M129.1,50h0.4l2,0.4c0.6,0,0.8,0.4,0.8,1C130.5,52,129.3,51.4,129.1,50z M134.4,64.6l0.4,1.4l0.4,0.4
		v1.2l-0.6,0.2c-0.2,0-0.6,0-0.8-0.4c-0.4-0.8-0.4-2,0.4-2.6L134.4,64.6z M132.5,65l-0.6-0.6l-0.4-0.2c-0.4,0.4-0.8,0.2-0.8-0.2
		l-0.2-2l0.2-0.6l0.4,0.4c1,0.6,1,1.6,1.4,2.6V65z M134.2,48.8l0.2,1.2v0.4c0.4,0.2,0.4,0.4,0.2,0.8l-0.8,1l-0.6-0.2
		C132.7,51,133.3,49.2,134.2,48.8z M68.5,86.1c0.6,0.3,1.1,0.6,1.6,1c0.4,0.2,0.4,0.4,0.4,1l-0.4,0.6c-0.2,0.4-0.6,0.6-0.8,0l-1-2
		v-0.6H68.5z M63.4,84.1h-1.8c-0.6-0.6-1.2-1-1.4-1.6C61.6,82.1,63.2,82.7,63.4,84.1z M132.1,85.7v0.8l-1,1.8
		c-0.2,0.4-0.6,0.4-0.8,0c-0.4-0.8-0.6-1.4,0.4-1.8l0.8-0.6l0.6-0.4V85.7z M98.4,35.1c0.2,0.4,0,0.6-0.4,0.6l-5.4,0.8
		c-0.4,0-0.6,0-0.6-0.4C94,35.5,96.2,35.3,98.4,35.1z M67.3,48.8l0.4,0.4c0.6,0.8,0.8,1.6,0.6,2.4c0,0.6-0.6,1-0.8,0.6l-0.6-0.6
		c0-0.4-0.2-0.8,0.2-1l0.2-1V48.8z M137.2,83.7c0-1.4,1.6-2,3.4-1.6l-0.6,0.8c-0.3,0.3-0.7,0.6-1,0.8H137.2z M68.7,78.5
		c-1-1-1.2-2.6-0.6-3.4c0.2-0.4,0.6-0.4,0.6,0c0.4,0.6,0.6,1.4,0.4,2.2L68.7,78.5z M124.7,52.2l-1.2-0.6l-0.8-1.4V50h1
		c0.8,0,1.4,0.4,1.6,1.2C125.3,51.6,125.1,52,124.7,52.2z M77.7,50.2l0.8-0.2c0.4,0,0.4,0.2,0.2,0.4c-0.4,0.8-0.8,1.6-2,1.8
		c-0.4,0-0.6-0.2-0.6-0.6C76.1,50.8,76.7,50.2,77.7,50.2z M70.5,57.4l0.4,0.6l-0.2,0.4l-0.4,1c-0.2,0.4-1,0.8-1.4,0.6
		c-0.2-0.2-0.4-0.4-0.2-0.6C68.7,58.6,69.7,57.6,70.5,57.4z M103.2,35.1c2.2,0.2,4.4,0.4,6.6,1c0,0.4-0.2,0.4-0.6,0.4l-5.4-0.8
		C103.4,35.7,103.2,35.5,103.2,35.1z M71.7,85.5v0.2c0,0.4,0,0.8-0.4,0.8c-0.4,0.2-1-0.4-1.2-0.8c0-0.4,0-1,0.4-1.4v-0.4l0.2-0.4
		l0.6,0.2l0.6,1.8H71.7z M85.7,100c0.6,0.2,1,0.6,1,1.2l0.8,3.4c-0.6,0-0.8-0.2-1-0.8l-0.8-3.4V100z M130.7,57.2
		c1,0.4,1.6,1,1.8,1.8c0.2,0.4,0,0.8-0.4,0.8c-0.8,0-1.2-0.2-1.2-0.8l-0.2-0.4l-0.4-0.6L130.7,57.2z M132.1,78.1l-0.6-1.8l0.4-1.4
		l0.4-0.4l0.4,0.4C133.1,76.1,132.9,77.3,132.1,78.1z M128.7,84.9l0.6-1.6l0.4-0.2l0.4,0.4l0.2,0.6c0.4,0.8,0,1.8-1,2l-0.4-0.2
		L128.7,84.9z M114.5,99.6l-1.2,4l-0.8,0.6v-0.4l1-3.6c0-0.6,0.6-0.4,0.8-0.6H114.5z M126.3,94.8c0,1-0.6,1.6-1.4,2l-1-0.2v-0.4
		l0.6-0.8l1.2-1l0.4-0.2L126.3,94.8z M75.5,97.4L75.1,97c-0.8-0.4-1.2-1-1.2-2c0.2-0.2,0.4-0.4,0.6-0.2l1.6,1.4l0.2,0.8L75.5,97.4z
		 M66.7,63.6l0.2-0.8l1.2-1.2c0.2-0.4,0.4-0.2,0.6,0c0.2,0.4,0,1.4-0.2,1.6L68.1,64l-0.2,0.2L67.7,64C67.5,63.6,67.3,63.6,66.7,63.6
		z M134.4,63.4c-0.4-0.2-0.8,0-0.8,0.4l-0.4,0.2l-0.2-0.4l-0.4-0.6v-1.6l0.4-0.2l1.2,1.4L134.4,63.4z"/>
	<path class="st4" d="M76.3,53.4c0,0.6-0.2,0.8-0.6,1.2l-1.6,0.8c-0.4,0-0.6-0.2-0.4-0.6C73.9,53.8,75.3,53.2,76.3,53.4z
		 M125.7,53.2c0.6,0.2,1.4,0.4,1.8,1.2V55l-0.6,0.2c-0.6-0.2-1.4-0.6-1.8-1.4C124.9,53.4,124.9,53.2,125.7,53.2z M119.9,97.2
		l0.4-0.8l1.2-0.6c0.6-0.2,0.8,0,0.6,0.6l-0.6,1.6h-0.4C120.7,97.6,120.5,97.2,119.9,97.2z M80.3,97.8c-0.6,0-0.8,0.4-1.2,0.8h-0.4
		l-0.6-1.8c-0.2-0.4,0.2-0.6,0.6-0.4l1.2,0.8l0.4,0.4V97.8z M71.1,52.6l-0.2,0.2l-0.4,0.4c-0.8,1.2-1.8,0.8-2.8,1l0.4-1l0.6-0.2
		c0.4-0.4,0.8-0.4,1.2-0.4h0.4l0.8-0.2V52.6z M133.5,54l-1.8-0.2h-0.2l-1.4-1.4v-0.2l0.6,0.2h1l0.6,0.2l0.8,0.4
		C133.5,53.2,133.5,53.4,133.5,54z M66,87.7c0.8,1.4,1.6,2.8,2.4,4.2c0.2,0.4,0.2,0.8-0.2,1.2l-2.6-5L66,87.7z M68.9,49.2l0.4-1.4
		l0.6-1.6l0.2-0.2l0.4,0.2c0.4,1-0.2,1.8-0.6,2.8l-0.8,0.4L68.9,49.2z M78.1,40.3c0.2-0.8,0.4-1.6,1-2.2c0.4-0.4,0.6-0.2,0.8,0.4
		c0.2,0.6-0.4,1.8-1.2,2.2C78.3,40.9,78.1,40.7,78.1,40.3z M123.5,40.3c0,0.4-0.2,0.4-0.4,0.4l-0.2-0.2c-0.8-0.2-1.4-1.6-1-2.4
		c0-0.4,0.2-0.4,0.4-0.2l0.8,1L123.5,40.3z M134.4,87.3l0.4,0.2l-2.8,5v-1l2.2-3.8L134.4,87.3z M127.1,48.6c0.8-0.6,1.6-0.8,2.6-0.6
		l0.8,0.8c0,0.4,0,0.6-0.4,0.6l-1.4-0.2L127.1,48.6z M132.5,48.6l-0.4,0.6l-0.8-0.4l-0.4-1.8c-0.2-0.4,0-0.6,0.2-1h0.4L132.5,48.6z
		 M83.9,41.1l-0.4,0.2l-2,0.2l-0.6-0.4l-0.2-0.4l0.6-0.4l2,0.2l0.8,0.4L83.9,41.1z M74.3,48.8c-1,0.2-1.8,1-3,0.6
		c-0.4,0-0.6-0.2-0.4-0.4l0.8-0.8C72.5,48,73.5,48.2,74.3,48.8z M90,38.3c-0.6,0-1-0.2-1.4-0.6c-0.4-0.2-0.4-0.6-0.2-1h0.4
		c0.8,0.3,1.5,0.6,2.2,1l0.2,0.2L91,38.1L90,38.3z M69.9,79.5c0.4,0.6,0.4,2-0.4,3l-0.8-1v-0.4C68.7,80.5,69.3,79.9,69.9,79.5z
		 M117.7,41.1c0.2-0.6,0.8-0.8,1.2-0.8l1.2-0.2c0.4,0,0.8,0.2,0.8,0.6l-0.6,0.6C119.5,41.5,118.7,41.5,117.7,41.1z M110.4,37.9
		l0.2-0.2l2.2-1.2l0.6,0.2c0,0.4,0.2,0.8-0.2,1C112.5,38.3,111.5,38.1,110.4,37.9z M131.1,82.1c-0.8-0.8-0.8-2.4-0.2-3
		C132.3,80.1,132.3,81.1,131.1,82.1z M92.6,37.5l5.4-0.8c0.2,0.4,0,0.6-0.4,0.6l-4.2,0.6C93,37.9,92.8,37.9,92.6,37.5z M68.7,84.5
		l-1.6-0.8c-0.4-0.6-0.2-1.2-0.4-1.8C68.1,82.1,68.7,83.3,68.7,84.5z M126.5,41.5l0.4-0.6l3.6,3.2l-0.4,0.4L126.5,41.5z M109,37.3
		c0,0.6-0.4,0.6-0.6,0.6l-4.4-0.6c-0.4-0.2-0.4,0-0.4-0.8L109,37.3z M131.7,84.1c-0.2-1.2,1-2.6,2.2-2.6c-0.2,0.6,0,1.2-0.6,1.8
		L131.7,84.1z M74.7,40.9l0.4,0.6l-3.6,3.2l-0.4-0.4L74.7,40.9z M62.2,58c0.4,0,0.8,0.4,0.8,0.8l0.4,1.6c0,0.4-0.2,0.6-0.6,0.4
		c-0.4-0.4-0.8-0.6-0.8-1L62.2,58z M139,57.8v2l-1,0.8l-0.2-0.2c-0.4-0.8,0.4-2.4,1-2.6H139z M89.8,44l-0.6-0.2l-0.6-0.2
		c-0.4,0-0.6,0-0.6-0.4c-0.2-0.4,0.2-0.4,0.4-0.4c0.8-0.4,1.4-0.2,2.2,0.2c0.2,0.2,0.2,0.8-0.2,0.8L89.8,44z M111.7,44l-0.6-0.2
		c-0.2-0.2-0.4-0.6,0-0.8c0.6-0.4,1.4-0.6,2.2-0.2l0.4,0.4l-0.4,0.4L111.7,44z M74.9,48l-0.4-0.4l3.6-3.2h0.6L74.9,48z M72.3,59.6
		l-0.2,1.2c0,0.4-0.8,0.6-1.2,0.2l-0.4-0.4v-0.4l0.4-0.4c0.2-0.4,0.6-0.6,1-0.6C72.3,59,72.5,59.2,72.3,59.6z M128.9,60.2v-0.4
		l-0.2-0.6c0-0.2,0.2-0.4,0.4-0.2c0.6,0.2,1.2,0.4,1.4,1v0.4l-0.4,0.4l-0.6,0.2C129.3,60.8,128.7,60.8,128.9,60.2z M95.2,40.1
		c-0.2-0.6-0.6-0.6-1.2-0.6h-0.4v-0.4c0.4-0.2,1-0.8,1.6-0.8h0.2l0.8,0.2l-0.4,0.8L95.2,40.1z M127.1,47.4l-0.6,0.4l-3.6-3.4h0.8
		L127.1,47.4z M92.4,41.9l-0.6-0.2c-0.4-0.2-0.2-0.4-0.2-0.6l0.6-0.8c0.4-0.4,0.8-0.4,1.2,0.2l0.2,0.4c0.2,0.2,0.2,0.4-0.2,0.6
		l-0.6,0.4H92.4z M106.4,40.1l-0.8-1.2c-0.4-0.2-0.2-0.4,0.2-0.6l1.6,0.2l0.6,0.4l0.2,0.4H108l-0.8,0.2
		C106.8,39.5,106.4,39.7,106.4,40.1z M109,41.7l-1-0.4l-0.2-0.2l0.8-1c0.2-0.2,0.6-0.2,0.8,0.2l0.6,0.6c0.2,0.4,0,0.6-0.4,0.8H109z
		 M72.5,46l-0.4-0.4l3.4-3l0.4,0.4L72.5,46z M77.1,43.8L73.7,47l-0.4-0.4l1.8-1.6l1.2-1C76.5,43.5,76.9,43.5,77.1,43.8z M80.9,48.2
		L80.5,49l-0.8,1c-0.2,0.2-0.4,0-0.4-0.2c0-0.4-0.2-0.6-0.6-0.6L78.5,49l0.2-0.2l1.8-0.6H80.9z M81.3,47.2l0.4-0.4
		c0.6-0.6,1.2-0.6,2-0.4l0.2,0.4l-0.8,0.8l-0.6,0.2l-0.6-0.2l-0.2-0.2L81.3,47.2z M125.7,42.9l0.4-0.6l3.2,3l-0.4,0.4L125.7,42.9z
		 M120.9,48l1.8,0.6l0.2,0.4h-0.2c-0.4,0-0.6,0.2-0.6,0.6s-0.2,0.4-0.4,0.2l-1.2-1.4C120.5,48,120.7,48,120.9,48z M118.3,46.2
		l1.4,0.4c0.4,0.2,0.4,0.6,0,0.8c-0.2,0.4-0.6,0.4-0.8,0.2c-0.6-0.2-1.2-0.4-1.2-1l0.2-0.4H118.3z M127.7,46.8l-3.2-3
		c0.2-0.2,0.4-0.4,0.8,0l2.6,2.4l0.2,0.2L127.7,46.8z M91.2,39.9L90,41.3c-0.4,0.4-0.6,0.2-0.6-0.2L89,40.5c-0.2-0.4,0-0.8,0.4-0.8
		h1.8V39.9z M74.9,92c1,0.4,1,1.2,1.2,2c0.2,0.4-0.2,0.6-0.6,0.4c-0.8-0.2-1-0.6-0.8-1.4L74.9,92z M125.5,91.6l0.2,1.2
		c0,0.6-0.6,1.2-1.2,1.2l-0.4-0.6C124.1,92.8,124.7,91.8,125.5,91.6z M110.4,39.5h0.6l1.2,0.2c0.4,0,0.6,0.4,0.4,0.6l-0.4,1h-0.4
		l-1.2-1.2L110.4,39.5z M81.3,100.6l-0.4-0.4l-0.6-1v-0.6h0.6l1.2,1c0.4,0.4,0.2,0.6-0.2,0.8L81.3,100.6z M132.9,86.5l0.6,0.4
		l-2.4,4c-0.2-0.4-0.4-0.6,0-1l1.6-3L132.9,86.5z M67.1,87.3l0.4-0.4l0.2,0.6l1.6,3c0.2,0.2,0.2,0.6-0.2,1L67.1,87.3z M118.7,100
		l-0.8-0.2v-0.4c0-0.6,1.2-1.4,1.6-1.4l0.4,0.4l-0.8,1.4L118.7,100z M86.5,44.2l0.4,0.2c0.6,0.2,0.6,0.6,0.2,0.8
		c-0.6,0.2-1,0.6-1.8,0.4l-0.4-0.4c-0.2-0.2,0.2-0.4,0.4-0.6L86.5,44.2z M115.7,45.6l-1.4-0.6c-0.2-0.2-0.2-0.6,0.2-0.6l1-0.2
		l0.8,0.4l0.4,0.4l-0.4,0.4L115.7,45.6z M77.7,97.8c0.2,0.6,0.8,1,1,1.8c-0.4,0.2-0.8,0.2-1-0.2l-1-0.8L76.5,98l0.6-0.2H77.7z
		 M81.7,44.4l-0.2-0.2v-0.6l2-1c0.2-0.2,0.4-0.2,0.6,0.2l-0.2,0.4c-0.6,0.2-1.2,0.4-1.6,1L81.7,44.4z M121.5,47.2l-1.2-0.6l-0.2-0.8
		v-0.2h1.6l0.6,0.4l-0.4,0.4C121.5,46.6,121.5,46.6,121.5,47.2z M118.7,100.8c-0.4,0.6-0.8,1-1.6,1c-0.2,0.2-0.4,0-0.4-0.4l0.2-0.6
		c0-0.4,0.4-0.6,1-0.4L118.7,100.8z M121.5,99c0-0.8,0.8-1.2,1-1.8h0.8l0.4,0.2l-0.2,0.6l-1,0.8C122.3,99.2,121.9,99.2,121.5,99z
		 M79.9,47.2c0.2-0.4,0-0.6-0.2-0.8L79.3,46l0.4-0.2h1.8c0,0.6,0,0.8-0.6,1l-0.6,0.4H79.9z M81.3,101.4l1-0.4c0.4-0.2,0.8,0,1,0.6
		v0.8c-0.4,0.2-0.8,0-1.2-0.2l-0.4-0.4L81.3,101.4z M139,84.9l-0.8,1.6c-0.2,0.4-0.6,0.2-0.8,0c-0.4,0-0.4-0.2-0.6-0.6l0.2-0.2
		l1-0.4L139,84.9z M119.9,44.4l-0.6-0.4c-0.4-0.6-1-0.8-1.4-0.8c-0.4-0.2-0.4-0.4-0.4-0.6l0.6-0.2l2,1.2V44L119.9,44.4z M61.4,85.3
		l1.8,0.6l0.6,0.4l-0.6,0.6c-0.4,0.4-0.8,0.4-1-0.2L61.4,85.3z M80.7,96.6l0.8,0.4l0.6,1.2l-0.2,0.4h-0.4l-0.8-1l-0.2-0.8L80.7,96.6
		z M119.7,96.2c0,0.4,0,0.8-0.4,1l-0.6,0.8l-0.4,0.2l-0.2-0.4c-0.2-0.4,0.6-1.6,1.2-1.6H119.7z M82.7,45.4l0.4-0.6l0.4-0.4
		c0-0.4,0.8-0.6,1-0.4l0.2,0.4l-0.6,0.8C83.7,45.4,83.3,45.6,82.7,45.4z M118.7,45.2c-0.4,0.2-0.8,0.2-1.2-0.2l-0.6-0.8l0.2-0.4
		c0.4-0.2,0.8,0,1,0.4l0.4,0.6L118.7,45.2z M94.2,42.5l-0.4-0.2l0.2-0.4l0.4-0.6H95c0.2,0.2,0.4,0.4,0.2,0.6L94.2,42.5z M107.4,42.3
		l-0.8-0.4c-0.2,0-0.4-0.2,0-0.6h0.6l0.4,0.4l0.2,0.4L107.4,42.3z M65.2,69.3c0.4,0.2,0.8,0,0.6,0.6l-0.2,0.2
		C65.2,69.9,65.2,69.7,65.2,69.3z M135.8,68.9c-0.2,0.4,0,0.8-0.4,0.8l-0.4-0.2C135,69.1,135.4,69.1,135.8,68.9z M112.1,100.6
		c-0.2,0.6-0.8,0.6-1,0.8C110.8,101,111,101,112.1,100.6z M89.2,102c-0.4-0.2-1-0.2-1-0.8C88.5,101.4,89,101.4,89.2,102z
		 M88.1,102.2c0.2,0.4,0.8,0.2,1,0.8C88.5,103,88.1,102.6,88.1,102.2z M89,105.2c-0.4-0.2-0.8-0.2-0.8-0.8
		C88.3,104.6,89,104.6,89,105.2z M111,103.6c0-0.6,0.6-0.6,1-0.8C112.1,103.2,111.9,103.2,111,103.6z M112.1,101.8
		c-0.2,0.6-0.6,0.4-1,0.6C111,102,111.7,102,112.1,101.8z M89,104c-0.4-0.2-0.8,0-0.8-0.6C88.3,103.6,89,103.6,89,104z M111,104.6
		c0-0.6,0.6-0.6,1-0.8C111.9,104.4,111.5,104.4,111,104.6z M101.6,107.6c0,1-0.8,1.8-1.8,1.8c-1.2,0-2-0.8-2-1.8s0.8-2,2-2
		C100.8,105.6,101.6,106.4,101.6,107.6z"/>
	<g>
		<path class="st6" d="M85.7,89c0.4,0,0.8,0,1-0.4c0.4-0.6,0.8-1,0.6-1.6c0-0.6,0-1-0.6-1.2c-0.6-0.2-0.8-0.6-0.8-1.2h1
			c0.6,0,0.6,0,0.8-0.6l-0.8-1.4h0.6c0.2,0.2,0.6,0,0.6-0.4l0.6-2.4l0.2-0.6l0.6,0.4v0.2c0.2,0.4,0.4,0.6,0.8,0.4H109
			c0.4,0,0.8,0,1-0.4l0.2-0.4h0.4l0.2,0.2l0.4,2.2c0.2,0.8,0.2,1,1.2,0.8l0.2,0.2l-0.8,1l-0.2,0.4c0.2,0.2,0.2,0.4,0.6,0.4h1.4
			c0,0.8-0.6,1.2-1.2,1.4l-0.4,0.4c0,0.8,0,1.6,0.8,2.2v0.2l0.8,0.2h7.4l0.8,0.4l0.8,1.8v0.2l0.2-0.4c7.5-8.8,9.1-21.1,4.2-31.5
			c-4.5-9.2-13.5-15.2-23.7-15.9H100c-8.5,0-16.6,3.7-22.1,10.2c-4.8,5.8-7.2,12.5-7,20.1c0.2,6,2.2,11.7,5.8,16.7l0.4,0.4l0.6-1.6
			c0.2-0.4,0.4-0.4,0.6-0.4H85.7z M117.5,96H81.9c1.4,1,2.6,2,4,2.6l3.4,1.8l3,0.8l0.2-0.2l-0.8-1l1.6-1.2l0.6,1l1.4-0.8l-0.6-1
			l1.6-0.8L97,98c0,0.2,0.2,0.4,0.4,0.2l1-0.2l0.4-0.2V97h1.8v1l1.4,0.2l0.4-0.2l0.4-0.8l1.8,0.8l-0.6,1l1.2,0.8l0.8-1l1.4,1.2
			l-0.6,1l0.2,0.2l3-0.8l-0.2-0.4C112.5,99,115.1,97.8,117.5,96z"/>
		<g>
			<path class="st7" d="M95,61.6l0.4-1.4l1.2-4.2c0.2-0.2,0.2-0.4-0.2-0.6l-4.2-3.2L92,51.8h5.6c0.4,0,0.4,0,0.6-0.4l1.8-5.2V46
				l0.6,1.4l1.4,4c0,0.4,0.2,0.4,0.4,0.4h5.8V52l-0.4,0.2l-4.2,3.2c-0.2,0.2-0.4,0.4-0.2,0.8L105,61l0.2,0.6l-1.2-0.8l-3.6-2.6h-0.8
				C98.1,59.4,96.5,60.5,95,61.6z M84.1,55.8c0.7,0.9,1.4,1.9,2,2.8l2.8-0.4L88.1,59l-1.2,1.4c-0.2,0-0.4,0.2-0.2,0.6l1.2,2.6
				L86.7,63l-1.2-0.8c-0.4-0.2-0.6,0-0.8,0.2L82.9,64l-0.2,0.2l0.4-2.6c0-0.4,0-0.6-0.4-0.8l-2.4-1.2l2.8-0.6c0.4,0,0.4,0,0.6-0.4
				L84.1,55.8z M112.5,64l1.2-2.6l-0.2-0.6l-1.6-1.8l-0.4-0.2l3,0.4l0.4-0.4l1.4-2.6l0.2,0.8l0.2,2l0.6,0.6l2.2,0.2l0.6,0.2
				l-2.4,1.2c-0.4,0.2-0.4,0.4-0.4,0.8l0.4,2.8l-1.4-1.4l-0.6-0.6l-0.6-0.2L112.5,64z M98,70.5l-2.4,0.2c-0.8,0-0.8,0-1,0.8L94,73.9
				l-1-2.2v-0.2c-0.2-0.4-0.4-0.6-1-0.6h-2.4l0.6-0.4l1.4-1.2l0.2-0.6l-1-2.4v-0.4l2.4,1.6c0.2,0.2,0.4,0.2,0.6-0.2l2.2-1.6v0.6
				l-0.6,2.2l0.2,0.4l2,1.4L98,70.5z M105.6,65.4l1.4,2c0.4,0.6,0.4,0.6,1.2,0.4l2.4-0.6l-1.4,1.8c-0.6,0.8-0.6,0.8,0,1.6l1.2,2
				c-1.1-0.2-2.3-0.5-3.4-0.8l-1.8,2.2v-1.4l0.2-1.4c0-0.4-0.2-0.4-0.4-0.6l-2.8-1c1.1-0.5,2.1-0.9,3.2-1.4L105.6,65.4z"/>
		</g>
		<g>
			<path class="st4" d="M110.2,100.6l-0.4-0.6c2.6-1,5.2-2.4,7.6-4H81.9l4,2.6l4.2,2l-0.2,0.6l-0.4-0.2C74,95,66.3,77.6,72.2,62.1
				c3.7-9.6,12-16.7,22.1-18.7c16-3.6,31.9,6.4,35.5,22.5c0.1,0.3,0.1,0.7,0.2,1c1.6,9.8-1.2,18.5-7.8,25.9
				C119,96.3,114.8,99,110.2,100.6z M122.7,91.2l0.2-0.2c7.4-8.8,9-21.1,4-31.5c-4.4-9.1-13.4-15.2-23.5-15.9H100L94.6,44
				c-6.6,1.4-12.3,4.6-16.7,9.8c-4.8,5.6-7.2,12.5-7,19.9c0.2,6.2,2.2,11.9,5.8,16.9l0.4,0.2l0.6-1.6l0.6-0.2h7.4
				c0.4,0,0.8-0.2,1-0.6c0.4-0.4,0.6-0.8,0.6-1.4s0-1-0.6-1.4c-0.6-0.2-0.8-0.6-0.8-1.2l1,0.2c0.6,0,0.6,0,0.8-0.6l-0.8-1.4v-0.2
				l0.6,0.2c0.2,0,0.6,0,0.6-0.4l0.6-2.4l0.2-0.6l0.4,0.4l0.2,0.2c0.2,0.4,0.4,0.4,0.8,0.4H109c0.4,0,0.8,0,0.8-0.6l0.4-0.2l0.4-0.2
				l0.2,0.4l0.4,2c0.2,1,0.2,1.2,1.2,1h0.2l-0.8,1l-0.2,0.4c0.2,0.2,0.2,0.6,0.6,0.6h1.4c-0.2,0.6-0.6,1-1.2,1.4l-0.4,0.2
				c0,0.8,0,1.6,0.8,2.2v0.2c0.2,0.4,0.4,0.4,0.8,0.4h7.4c0.4,0,0.6,0,0.6,0.4L122.7,91.2z M80.9,94.4c0.4,0.4,0.6,0.6,1,0.6h35.8
				c0.4,0,0.6-0.2,0.8-0.6H80.9z M111,84.1c-0.2-0.4-0.2-0.6-0.6-0.6H89.2c-0.4,0-0.6,0.2-0.6,0.6H111z M101.2,93.6
				c0-0.8,0.4-1.8-0.6-2.4c-0.8-0.4-1.6-0.4-2.2,0.2c-0.8,0.6-0.6,1.4-0.6,2.2H101.2z M102.2,86.3h-4.8v1.2l4.8,0.2V86.3z
				 M94.6,93.6c0-0.8,0.2-1.6-0.8-2c-0.4-0.4-1-0.2-1.6,0.2c-0.4,0.2-0.6,1.2-0.4,1.8H94.6z M107.8,93.6c0-0.8,0.2-1.6-0.6-2
				c-0.6-0.4-1.2-0.2-1.8,0c-0.6,0.6-0.4,1.4-0.4,2H107.8z M111,90.6l-0.6-0.8c0-0.2-0.2-0.6-0.4-0.4l-0.6,0.4c0,0.2,0,0.6-0.4,0.6
				l-0.2,0.4c0.6,0,0.6,0.4,0.6,0.8v1.2c0,0.8,0,0.8,0.8,0.8l0.2-2.2l0.4-0.8H111z M113.3,93.6c0.2-0.6,0.2-1.2-0.4-1.6l-1.2,0.2
				c-0.6,0.2-0.6,0.8-0.4,1.4H113.3z M90.2,89.4h-0.4c-0.4-0.2-0.4,0-0.4,0.2L89.2,90v0.6l0.2,1.4v1.2l0.2,0.4l0.2-0.6v-0.6
				c0-0.6,0-1.4,0.4-1.8l0.2-0.4L90.2,89.4z M88.3,93.6c0-0.6,0-1.2-0.6-1.4h-1.2c-0.4,0.4-0.4,1-0.4,1.4H88.3z M111.5,86.3h-1.8
				v1.2h1.8V86.3z M88.1,87.7H90v-1.4h-0.8c-1.2,0-1.2,0-1.2,1.2L88.1,87.7z M108.6,86.3h-1.2l-0.2,0.2v1h1.2L108.6,86.3z M93,86.3
				v1.2h1.2v-1.2H93z M95.2,87.5h1.2v-1.2h-1.2V87.5z M105.2,87.5h1.2v-1.2h-1.2V87.5z M103,86.3v1.2h1.2v-1.2H103z M92.2,86.3H91
				v1.2h1.2V86.3z"/>
			<path class="st5" d="M106.4,86.3h-1.2v1.2l1.2,0.2V86.3z M102.2,86.3h-4.8v1.2l4.8,0.2V86.3z M104.2,87.5v-1.2H103v1.2H104.2z
				 M110.2,83.5H89.2c-0.4,0-0.6,0.2-0.6,0.6h22.3C110.8,83.7,110.8,83.5,110.2,83.5z M100.6,91.2c-0.8-0.4-1.6-0.4-2.2,0.2
				c-0.8,0.6-0.6,1.4-0.6,2.2h3.4C101.2,92.8,101.6,91.8,100.6,91.2z M107,91.6c-0.4-0.4-1-0.2-1.6,0c-0.6,0.6-0.4,1.4-0.4,2h2.6
				C107.8,92.8,107.8,92,107,91.6z M81.9,95h35.8c0.4,0,0.6-0.2,0.8-0.6H80.9C81.3,94.8,81.5,95,81.9,95z M109.4,92.8
				c0,0.8,0,0.8,0.6,0.8h0.2l0.2-2.2l0.4-0.8h0.2l-0.6-0.8c-0.2-0.2-0.2-0.6-0.4-0.4l-0.6,0.4c0,0.2,0,0.6-0.4,0.6l-0.2,0.4
				c0.6,0,0.6,0.4,0.6,0.8V92.8z M109.4,87.5h2v-1.2h-2V87.5z M111.2,93.6h2c0-0.6,0-1.2-0.6-1.6l-1,0.2C111,92.6,111,93,111.2,93.6
				z M108.6,86.3h-1.2l-0.2,0.2v1h1.2L108.6,86.3z M96.4,87.5v-1.2h-1.2v1.2H96.4z M87.9,87.5l0.2,0.2H90v-1.4h-1
				C87.9,86.3,87.9,86.3,87.9,87.5z M86.5,92.2c-0.4,0.4-0.4,0.8-0.4,1.4h2.2c0-0.6,0-1.2-0.6-1.4H86.5z M90.4,90.2L90,89.4h-0.2
				c-0.4-0.2-0.4,0-0.6,0.2V90L89,90.6l0.2,1.4l0.2,1.2l0.2,0.4l0.2-0.6v-0.6c0-0.6,0-1.4,0.4-1.8L90.4,90.2z M92.2,86.3H91v1.2h1.2
				V86.3z M94.6,93.6c0-0.8,0.2-1.6-0.8-2c-0.4-0.4-1-0.2-1.6,0.2c-0.4,0.2-0.6,1.2-0.4,1.8H94.6z M94.2,86.3H93v1.2h1.2V86.3z"/>
		</g>
	</g>
</g>
</svg>
