<?xml version="1.0" encoding="utf-8"?>
<!-- Generator: Adobe Illustrator 22.1.0, SVG Export Plug-In . SVG Version: 6.00 Build 0)  -->
<svg version="1.1" id="图层_1" xmlns="http://www.w3.org/2000/svg" xmlns:xlink="http://www.w3.org/1999/xlink" x="0px" y="0px"
	 viewBox="0 0 200 200" style="enable-background:new 0 0 200 200;" xml:space="preserve">
<style type="text/css">
	.st0{fill:#12B7F5;}
</style>
<path class="st0" d="M100,5C47.5,5,5,47.5,5,100s42.5,95,95,95s95-42.5,95-95S152.5,5,100,5z M99.1,44.2c0.6,0,1.2,0,1.7,0
	c0.2,0,0.4,0.1,0.6,0.1c1.6,0.2,3.2,0.2,4.8,0.5c5.3,0.8,10.1,2.9,14.3,6.3c4.7,3.8,8,8.6,10.3,14.2c3.1,7.4,4.2,15.2,4.1,23.2
	c0,1.9,0.3,3.6,1,5.3c2.6,6.4,5.2,12.7,7.3,19.2c1.4,4.4,2.6,8.9,3.3,13.4c0.1,1,0.3,2.1,0.4,3.1c0,1.1,0,2.1,0,3.2
	c-0.1,0.7-0.2,1.4-0.4,2.1c-0.4,1.3-0.9,1.5-2,0.7c-0.9-0.7-1.8-1.5-2.5-2.5c-2-2.6-3.8-5.3-5.7-8c-0.1-0.1-0.2-0.3-0.3-0.5
	c-0.5,9-4.5,16.2-11.1,22.1c1,0.4,1.9,0.7,2.9,1c2,0.8,4,1.6,5.8,3c0.7,0.5,1.2,1.1,1.5,1.9c0.3,1.1,0,1.8-1.1,2.2
	c-0.5,0.2-1.1,0.3-1.6,0.4c-2.9,0.5-5.8,0.6-8.7,0.7c-0.7,0-1.4,0.1-2.2,0.1c-1.1,0-2.1,0-3.2,0c-0.2,0-0.4-0.1-0.5-0.1
	c-4.2-0.2-8.5-0.3-12.7-0.5c-2.6-0.1-5.1-0.4-7.7-0.2c-4.7,0.4-9.3,0.4-14,0.6c-0.5,0-1,0.1-1.5,0.1c-1.1,0-2.1,0-3.2,0
	c-0.2,0-0.3-0.1-0.5-0.1c-2.7-0.1-5.4-0.2-8.1-0.4c-1.4-0.1-2.7-0.5-4.1-0.8c-0.7-0.2-1-0.7-0.9-1.4c0.1-0.5,0.2-1.1,0.5-1.5
	c0.3-0.5,0.8-0.9,1.3-1.3c1.7-1.2,3.6-2.1,5.5-2.8c0.9-0.3,1.9-0.7,2.8-1c-6.6-5.9-10.6-13.1-11.1-22.1c-0.2,0.2-0.2,0.4-0.3,0.5
	c-1.4,2.1-2.8,4.2-4.3,6.2c-1.1,1.4-2.3,2.8-3.7,4c-1.2,1.1-1.9,0.8-2.3-0.8c-0.2-0.6-0.2-1.2-0.3-1.9c0-1.1,0-2.1,0-3.2
	c0.1-1,0.2-2.1,0.4-3.1c0.7-5.1,2-10,3.8-14.8c2.4-6.5,5-13,7.5-19.5c0.3-0.7,0.4-1.4,0.4-2.1c-0.2-5.4,0.2-10.8,1.3-16.1
	c1.3-5.7,3.3-11.1,6.6-16c5.4-7.8,12.9-12.3,22.4-13.4C96.6,44.4,97.9,44.3,99.1,44.2z"/>
</svg>
