<?xml version="1.0" encoding="utf-8"?>
<!-- Generator: Adobe Illustrator 22.1.0, SVG Export Plug-In . SVG Version: 6.00 Build 0)  -->
<svg version="1.1" id="图层_1" xmlns="http://www.w3.org/2000/svg" xmlns:xlink="http://www.w3.org/1999/xlink" x="0px" y="0px"
	 viewBox="0 0 200 200" style="enable-background:new 0 0 200 200;" xml:space="preserve">
<style type="text/css">
	.st0{fill:#BAC3D3;}
</style>
<path class="st0" d="M100,104.5c-0.2,0-0.5-0.1-0.7-0.1c-0.7,0-1.3,0-2,0C73.8,103.3,55,83.7,55,59.8c0-24.6,19.9-44.7,44.3-44.7
	s44.3,20,44.3,44.7C143.5,84.2,124,104.1,100,104.5L100,104.5z M99.2,6.2c-29.3,0-53.1,24-53.1,53.6c0,21.1,12.1,39.4,29.7,48.1
	c-12.3,3.8-23.6,10.6-32.9,20.1c-15.1,15.2-27.8,39.8-27.8,61.3c0,2.5,2,4.5,4.4,4.5s4.4-2,4.4-4.5c0-19.1,11.8-41.5,25.2-55
	c12.9-13,29.9-20.4,48.1-20.9c0.7,0,1.4,0,2,0c29.3,0,53.1-24,53.1-53.6C152.3,30.2,128.5,6.2,99.2,6.2L99.2,6.2z M155.6,128
	c-1.7-1.8-4.5-1.8-6.3,0c-1.7,1.7-1.7,4.6,0,6.3c13.4,13.5,25.2,35.9,25.2,55c0,2.5,2,4.5,4.4,4.5c2.5,0,4.4-2,4.4-4.5
	C183.3,167.8,170.6,143.2,155.6,128L155.6,128z"/>
</svg>
