<?xml version="1.0" encoding="utf-8"?>
<!-- Generator: Adobe Illustrator 22.1.0, SVG Export Plug-In . SVG Version: 6.00 Build 0)  -->
<svg version="1.1" id="图层_1" xmlns="http://www.w3.org/2000/svg" xmlns:xlink="http://www.w3.org/1999/xlink" x="0px" y="0px"
	 viewBox="0 0 200 200" style="enable-background:new 0 0 200 200;" xml:space="preserve">
<style type="text/css">
	.st0{fill:#42AE3C;}
</style>
<g>
	<path class="st0" d="M65.2,64.3c-3.6,0-7.3,2.4-7.3,6.1c0,3.6,3.7,6.1,7.3,6.1c3.6,0,6.1-2.4,6.1-6.1
		C71.2,66.7,68.8,64.3,65.2,64.3z"/>
	<path class="st0" d="M99.2,76.4c3.7,0,6.1-2.4,6.1-6.1c0-3.7-2.4-6.1-6.1-6.1c-3.6,0-7.3,2.4-7.3,6.1C91.9,74,95.5,76.4,99.2,76.4z
		"/>
	<path class="st0" d="M100,5C47.5,5,5,47.5,5,100s42.5,95,95,95s95-42.5,95-95S152.5,5,100,5z M81,126.3c-6.1,0-10.9-1.2-17-2.4
		l-17,8.5l4.9-14.6c-12.2-8.5-19.4-19.5-19.4-32.8c0-23.1,21.9-41.3,48.6-41.3c23.9,0,44.8,14.5,49,34.1c-1.5-0.2-3.1-0.3-4.7-0.3v0
		c-23.1,0-41.3,17.2-41.3,38.5c0,3.5,0.5,6.9,1.5,10.2C84,126.2,82.5,126.3,81,126.3z M152.6,143.3l3.7,12.1l-13.3-7.3
		c-4.9,1.2-9.7,2.4-14.6,2.4c-23.1,0-41.3-15.8-41.3-35.3c0-19.4,18.2-35.3,41.3-35.3c21.8,0,41.3,15.8,41.3,35.3h0
		C169.7,126.3,162.4,136,152.6,143.3z"/>
	<path class="st0" d="M141.7,99.5c-2.4,0-4.8,2.4-4.8,4.9c0,2.5,2.4,4.9,4.8,4.9c3.6,0,6.1-2.4,6.1-4.9
		C147.8,102,145.3,99.5,141.7,99.5z"/>
	<path class="st0" d="M115,99.5c-2.4,0-4.9,2.4-4.9,4.9c0,2.5,2.4,4.9,4.9,4.9c3.7,0,6.1-2.4,6.1-4.9C121.1,102,118.7,99.5,115,99.5
		z"/>
</g>
</svg>
