<?xml version="1.0" encoding="utf-8"?>
<!-- Generator: Adobe Illustrator 22.1.0, SVG Export Plug-In . SVG Version: 6.00 Build 0)  -->
<svg version="1.1" id="图层_1" xmlns="http://www.w3.org/2000/svg" xmlns:xlink="http://www.w3.org/1999/xlink" x="0px" y="0px"
	 viewBox="0 0 200 200" style="enable-background:new 0 0 200 200;" xml:space="preserve">
<style type="text/css">
	.st0{fill:#D81E06;}
	.st1{fill:#E6162D;}
</style>
<path class="st0" d="M91.1,111.7c-2.1,0-3.8,1.7-3.8,3.9c0,2.1,1.7,3.9,3.8,3.9c2.1,0,3.8-1.7,3.8-3.9
	C94.9,113.4,93.2,111.7,91.1,111.7L91.1,111.7z"/>
<path class="st0" d="M87.6,92.6c-20.8,2.9-36.1,16.4-34.2,30.2c1.9,13.7,20.4,22.5,41.2,19.6s36.1-16.4,34.2-30.2
	C126.9,98.4,108.4,89.7,87.6,92.6z M90.8,138.6c-12.4,2.4-24.1-4.1-26.1-14.6s6.3-20.9,18.7-23.3c12.4-2.4,24.1,4.1,26.1,14.6
	C111.5,125.8,103.2,136.2,90.8,138.6z"/>
<path class="st1" d="M100,5C47.5,5,5,47.5,5,100s42.5,95,95,95s95-42.5,95-95S152.5,5,100,5z M93,154.2c-32.6,0-59-17.3-59-38.7
	s39.6-55.1,54.7-55.1c6.3,0,18.8,4.8,10.1,20c-0.6,1.1,19.6-8.8,30.7-2.3s0,17,0,18.2c0,1.2,22.2,1.2,22.2,19.2
	C151.8,136.9,125.6,154.2,93,154.2L93,154.2z M139.4,75.2c-3.7-4.4-11.2-3.4-11.2-3.4c-1.6,0-2.8-1.1-2.8-2.6v-1.1
	c0-1.5,1.2-2.9,2.7-3.2c0,0,9-2.3,15.9,4s3.9,17.8,3.9,17.8c-0.2,1.5-1.7,2.7-3.3,2.7h-2.5c-1.5,0-2.4-1.2-2-2.6
	C140.2,86.7,143.1,79.6,139.4,75.2L139.4,75.2z M165.3,90.1c-0.2,2.3-2.4,4.1-4.7,4.1h-1.8c-2.3,0-3.9-1.8-3.5-4.1
	c0,0,3.3-13.8-4.3-24.9s-25.3-9.1-25.3-9.1c-2.3,0-4.2-1.7-4.2-4v-2c0-2.3,1.8-4.2,4.1-4.2c0,0,18.5-1.7,31.1,10.4
	C169.4,68.4,165.3,90.1,165.3,90.1L165.3,90.1z"/>
<path class="st0" d="M77.5,117.7c-3.8,1.8-5.8,5.6-4.4,8.5c1.4,2.9,5.5,3.8,9.4,2c3.8-1.8,5.8-5.6,4.4-8.5
	C85.5,116.9,81.3,115.9,77.5,117.7L77.5,117.7z"/>
</svg>
