<?xml version="1.0" encoding="utf-8"?>
<!-- Generator: Adobe Illustrator 22.1.0, SVG Export Plug-In . SVG Version: 6.00 Build 0)  -->
<svg version="1.1" id="图层_1" xmlns="http://www.w3.org/2000/svg" xmlns:xlink="http://www.w3.org/1999/xlink" x="0px" y="0px"
	 viewBox="0 0 200 200" style="enable-background:new 0 0 200 200;" xml:space="preserve">
<style type="text/css">
	.st0{fill:#703EFF;}
</style>
<path class="st0" d="M100,9.3L8.8,100.5l91.2,91.2l91.2-91.2L100,9.3z M75,138.3V136c1.7-1,3.4-3,4.5-5.3c0.9-2.2,1.4-5.3,1.4-9.2
	V79.6c0-3.9-0.5-7.1-1.4-9.2c-1.2-2.3-2.8-4.3-4.5-5.4v-2.2h23v2.2c-1.8,1.2-3.4,3.1-4.5,5.4c-0.9,2.2-1.4,5.3-1.4,9.2v54.2h12
	c2.2,0,4.5-0.9,6.4-2.5l9.7-8.2h2.3l-2.1,15.3H75z"/>
</svg>
