<?xml version="1.0" encoding="utf-8"?>
<!-- Generator: Adobe Illustrator 22.1.0, SVG Export Plug-In . SVG Version: 6.00 Build 0)  -->
<svg version="1.1" id="图层_1" xmlns="http://www.w3.org/2000/svg" xmlns:xlink="http://www.w3.org/1999/xlink" x="0px" y="0px"
	 viewBox="0 0 574 151" style="enable-background:new 0 0 574 151;" xml:space="preserve">
<style type="text/css">
	.st0{fill:#703EFF;}
	.st1{font-family:'22ndOpenBold';}
	.st2{font-size:113.3461px;}
	.st3{letter-spacing:24;}
</style>
<text transform="matrix(1 0 0 1 156.102 107.5998)" class="st0 st1 st2 st3">LOGO</text>
<path class="st0" d="M73.1,10.1L7.8,75.5l65.4,65.4l65.4-65.4L73.1,10.1z M55.2,111v-2.2c1.7-1,3.3-2.9,4.4-5.2
	c0.9-2.1,1.3-5.2,1.3-9V53.9c0-3.8-0.4-6.9-1.3-9c-1.1-2.2-2.7-4.2-4.4-5.3v-2.1h22.4v2.1c-1.8,1.1-3.3,3-4.4,5.3
	c-0.9,2.1-1.3,5.2-1.3,9v52.7h11.7c2.1,0,4.4-0.9,6.2-2.5l9.4-8h2.2l-2,14.8H55.2z"/>
</svg>
